<svg width="1080" height="1080" viewBox="0 0 1080 1080" fill="none" xmlns="http://www.w3.org/2000/svg">
<g clip-path="url(#clip0)">
<rect width="1080" height="1080" fill="white"/>
<rect width="1080" height="1080" fill="black"/>
<path d="M873.345 435.011C890.506 475.406 900 519.844 900 566.499C900 752.367 749.324 903.043 563.456 903.043C377.589 903.043 226.913 752.367 226.913 566.499C226.913 397.322 351.743 257.3 514.32 233.517C534.176 200.579 576.523 135.58 587.064 139.094C600.24 143.486 607.092 209.45 626.867 213.76C658.984 220.759 732.826 241.21 761.649 248.896C781.322 233.158 824.291 204.262 838.785 214.583C858.275 375.992 747.43 585.412 584.044 474.951" stroke="white" stroke-width="40"/>
<path d="M581.026 328.368C586.699 336.603 606.665 350.603 641.143 340.72" stroke="white" stroke-width="10"/>
<path d="M710.868 357.189C716.907 367.895 741.173 382.444 775.651 372.562" stroke="white" stroke-width="10"/>
<path d="M631.258 418.509C631.258 433.779 684.513 447.23 694.121 437.347" stroke="white" stroke-width="10"/>
<path d="M657.208 434.437C659.258 430.943 665.023 426.035 663.101 400.841" stroke="white" stroke-width="10"/>
<path d="M-105.655 967C-58.6973 885.667 58.6973 885.667 105.655 967L427.817 1525C474.774 1606.33 416.077 1708 322.161 1708H-322.161C-416.077 1708 -474.774 1606.33 -427.817 1525L-105.655 967Z" fill="white" fill-opacity="0.15"/>
<path d="M-317.782 -82.5C-339.575 -120.247 -339.575 -166.753 -317.782 -204.5L-211.968 -387.774C-190.175 -425.521 -149.9 -448.774 -106.313 -448.774L105.313 -448.774C148.9 -448.774 189.175 -425.521 210.968 -387.774L316.782 -204.5C338.575 -166.753 338.575 -120.247 316.782 -82.5L210.968 100.774C189.175 138.521 148.9 161.774 105.313 161.774L-106.313 161.774C-149.9 161.774 -190.175 138.521 -211.968 100.774L-317.782 -82.5Z" fill="white" fill-opacity="0.15"/>
<ellipse cx="1079.5" cy="539.879" rx="70.5" ry="113.5" transform="rotate(-15 1079.5 539.879)" fill="#C4C4C4" fill-opacity="0.15"/>
</g>
<defs>
<clipPath id="clip0">
<rect width="1080" height="1080" fill="white"/>
</clipPath>
</defs>
</svg>
