<svg width="1080" height="1080" viewBox="0 0 1080 1080" fill="none" xmlns="http://www.w3.org/2000/svg">
<g clip-path="url(#clip0)">
<rect width="1080" height="1080" fill="white"/>
<rect width="1080" height="1080" fill="black"/>
<path d="M526.992 476.355V555.331M683.705 783.409C578.391 766.818 550.4 943.968 683.705 934.061C793.845 925.876 819.999 674.2 817.132 555.331C809.412 251.462 651.188 168.416 526.992 150.054C281.838 113.809 210.209 306.015 210.209 399.813C210.209 664.924 423.146 715.937 526.992 682.754V555.331M526.992 555.331C590.768 667.047 730.441 717.5 907 717.5" stroke="white" stroke-width="40"/>
<path fill-rule="evenodd" clip-rule="evenodd" d="M690 540.219C703.788 540.219 714.965 521.5 714.965 498.408C714.965 475.317 703.788 456.598 690 456.598C676.212 456.598 665.035 475.317 665.035 498.408C665.035 521.5 676.212 540.219 690 540.219ZM693.567 510.576C700.055 510.576 705.315 503.048 705.315 493.763C705.315 484.477 700.055 476.95 693.567 476.95C687.078 476.95 681.819 484.477 681.819 493.763C681.819 503.048 687.078 510.576 693.567 510.576Z" fill="white"/>
<path d="M974.345 967C1021.3 885.667 1138.7 885.667 1185.66 967L1507.82 1525C1554.77 1606.33 1496.08 1708 1402.16 1708H757.839C663.923 1708 605.226 1606.33 652.183 1525L974.345 967Z" fill="white" fill-opacity="0.15"/>
<path d="M762.218 -82.5C740.425 -120.247 740.425 -166.753 762.218 -204.5L868.032 -387.774C889.825 -425.521 930.1 -448.774 973.687 -448.774L1185.31 -448.774C1228.9 -448.774 1269.18 -425.521 1290.97 -387.774L1396.78 -204.5C1418.57 -166.753 1418.57 -120.247 1396.78 -82.5L1290.97 100.774C1269.18 138.521 1228.9 161.774 1185.31 161.774L973.687 161.774C930.1 161.774 889.825 138.521 868.032 100.774L762.218 -82.5Z" fill="white" fill-opacity="0.15"/>
</g>
<defs>
<clipPath id="clip0">
<rect width="1080" height="1080" fill="white"/>
</clipPath>
</defs>
</svg>
