<svg width="1080" height="1080" viewBox="0 0 1080 1080" fill="none" xmlns="http://www.w3.org/2000/svg">
<g clip-path="url(#clip0)">
<rect width="1080" height="1080" fill="white"/>
<rect width="1080" height="1080" fill="black"/>
<ellipse cx="-0.500878" cy="539.878" rx="70.5" ry="113.5" transform="rotate(-15 -0.500878 539.878)" fill="#C4C4C4" fill-opacity="0.15"/>
<circle cx="658.045" cy="433.027" r="23.2579" fill="white"/>
<circle cx="422.406" cy="433.027" r="23.2579" fill="white"/>
<path fill-rule="evenodd" clip-rule="evenodd" d="M711.238 586.187C711.238 658.087 634.626 716.374 540.119 716.374C445.613 716.374 369 658.087 369 586.187C369 514.287 445.613 456 540.119 456C634.626 456 711.238 514.287 711.238 586.187ZM543.251 537.429C559.633 536.406 572.429 527.679 572.429 517.063C572.429 505.76 557.921 496.597 540.024 496.597C522.128 496.597 507.62 505.76 507.62 517.063C507.62 527.746 520.58 536.518 537.112 537.448L534.383 626.881H545.98L543.251 537.429Z" fill="white"/>
<path d="M719.997 275.696C741.724 124.826 958.084 262.843 810.274 343.328C988.258 577.13 844.243 833.886 749.987 933.039L761.922 808.793C499.475 1004.4 -8.95538 734.429 262.489 342.716C136.1 238.056 327.367 136.453 361.335 269.27C491.09 204.637 650.529 237.443 719.997 275.696Z" stroke="white" stroke-width="40"/>
<circle cx="642.5" cy="434.5" r="15.5" fill="black"/>
<circle cx="408" cy="435" r="14" fill="black"/>
</g>
<defs>
<clipPath id="clip0">
<rect width="1080" height="1080" fill="white"/>
</clipPath>
</defs>
</svg>
